<svg width="188" height="59" viewBox="0 0 188 59" fill="none" xmlns="http://www.w3.org/2000/svg">
<path d="M136.495 22.915C132.632 23.3965 129.783 25.5961 128.735 28.8791C128.015 31.1115 128.102 33.2345 129.008 35.3903C130.078 37.94 132.381 39.7566 135.437 40.446C136.321 40.6539 138.602 40.6649 139.518 40.4898C143.066 39.7894 145.543 37.5789 146.569 34.2303C146.809 33.4314 146.842 33.1907 146.842 31.7681C146.842 30.3455 146.809 30.1047 146.569 29.3059C145.554 26.001 143.164 23.8233 139.748 23.1011C139.038 22.9588 137.096 22.8494 136.495 22.915ZM138.656 27.2595C139.933 27.5987 141.145 28.4304 141.701 29.4044C142.563 30.8707 142.531 32.8077 141.636 34.2084C140.031 36.7363 136.364 37.1521 134.16 35.051C132.326 33.3001 132.261 30.5206 134.007 28.6274C135.175 27.3799 137.03 26.8436 138.656 27.2595Z" fill="black"/>
<path d="M155.377 22.915C151.513 23.3965 148.664 25.5961 147.617 28.8791C146.896 31.1115 146.984 33.2345 147.89 35.3903C148.959 37.94 151.262 39.7566 154.318 40.446C155.202 40.6539 157.483 40.6649 158.4 40.4898C161.947 39.7894 164.424 37.5789 165.45 34.2303C165.69 33.4314 165.723 33.1907 165.723 31.7681C165.723 30.3455 165.69 30.1047 165.45 29.3059C164.435 26.001 162.045 23.8233 158.629 23.1011C157.92 22.9588 155.977 22.8494 155.377 22.915ZM157.549 27.2595C158.836 27.5987 160.037 28.4304 160.594 29.4044C161.456 30.8707 161.423 32.8077 160.528 34.2084C158.924 36.7363 155.257 37.1521 153.052 35.051C151.218 33.3001 151.153 30.5206 152.899 28.6274C154.056 27.3799 155.911 26.8436 157.549 27.2595Z" fill="black"/>
<path d="M180.806 22.9697C178.558 23.298 176.866 24.7425 176.321 26.8217C175.797 28.7806 176.168 30.7832 177.216 31.7571C177.838 32.3371 178.58 32.6763 180.621 33.3329C182.596 33.9676 183.044 34.2412 183.251 34.9087C183.48 35.6748 182.913 36.594 182.051 36.8347C181.581 36.9661 180.697 36.9661 180.108 36.8238C179.464 36.6706 178.307 36.1015 177.816 35.6748C177.598 35.4668 177.347 35.3136 177.303 35.3136C177.259 35.3136 177.008 35.6857 176.768 36.1453C176.43 36.791 176.321 36.9332 176.299 36.7581L176.266 36.5393H173.636H171.017V29.9077V23.2761H168.845H166.673V31.779V40.2818H171.464H176.255V39.8113C176.255 39.5596 176.277 39.3517 176.299 39.3517C176.321 39.3517 176.714 39.5377 177.172 39.7456C178.591 40.4132 179.497 40.6101 181.254 40.6101C182.967 40.6101 183.775 40.4569 184.834 39.9426C185.674 39.5377 186.809 38.4106 187.191 37.6226C187.944 36.0468 188.053 33.9239 187.42 32.5778C187.311 32.3261 186.94 31.8337 186.591 31.4945C185.849 30.7503 185.052 30.3454 183.011 29.6888C182.203 29.4371 181.396 29.1307 181.21 29.0213C180.555 28.6164 180.424 27.73 180.937 27.1719C181.832 26.2089 183.426 26.2964 185.085 27.4017L185.412 27.6096L186.296 25.9134C186.766 24.9942 187.158 24.2172 187.137 24.2063C187.038 24.1078 185.805 23.6154 185.107 23.3965C183.633 22.9369 182.083 22.7727 180.806 22.9697Z" fill="black"/>
<path d="M58.787 29.3605V40.5664H62.7379C64.9098 40.5664 67.18 40.5007 67.7693 40.435C72.6479 39.8332 76.2496 36.8676 77.4065 32.5122C77.7885 31.0677 77.8758 28.5289 77.6029 27.0187C77.0463 24.0859 75.5292 21.7222 73.1936 20.1245C72.1459 19.4022 71.2073 19.0083 69.7011 18.5925C68.5224 18.2751 68.3369 18.2751 63.6438 18.2094L58.798 18.1547V29.3605H58.787ZM67.4092 22.729C70.476 23.3856 72.517 25.9572 72.517 29.1745C72.506 31.3084 71.8512 33.1469 70.6288 34.3616C69.4174 35.5872 67.6165 36.1782 65.1063 36.1891H63.9167V29.3715V22.5539H65.2373C65.9576 22.5539 66.929 22.6414 67.4092 22.729Z" fill="black"/>
<path d="M79.4474 29.3715V40.5664L88.8554 40.5554H98.2524L100.675 37.1411C102.018 35.2808 103.142 33.7487 103.175 33.7487C103.229 33.7487 104.353 35.2808 105.685 37.163L108.119 40.5773H111.175C112.845 40.5773 114.22 40.5335 114.22 40.5007C114.22 40.4569 112.419 37.94 110.247 34.9087L106.274 29.3934L110.072 24.075C112.168 21.1641 113.99 18.6581 114.111 18.5158C114.351 18.2751 114.351 18.3079 114.351 20.5513V22.8275H116.664H118.978V31.7024V40.5773H121.739H124.501V31.7024V22.8275L127.197 22.8056L129.881 22.7618L128.441 20.4856L127 18.2094L117.57 18.1985H108.13L105.707 21.6128C104.364 23.4731 103.24 25.0051 103.207 25.027C103.164 25.027 102.04 23.495 100.708 21.6128L98.2742 18.1985H88.8772H79.4692V29.3715H79.4474ZM96.0477 23.7686C98.2087 26.767 99.9768 29.2839 99.9768 29.3605C99.9768 29.4371 98.2087 31.976 96.0368 34.9963L92.0859 40.4898L92.0423 38.3449L92.0204 36.2H88.2987H84.577V33.6831V31.1771H87.5893H90.6016V29.0541V26.9311H87.5893H84.577V24.7425V22.5539H88.2987H92.0204V20.4309C92.0204 19.26 92.0423 18.3079 92.075 18.3079C92.1078 18.3079 93.8867 20.7701 96.0477 23.7686Z" fill="black"/>
<path fill-rule="evenodd" clip-rule="evenodd" d="M19.8238 3.31578C16.3313 5.14329 13.4609 6.68629 13.4718 6.75195C13.4718 6.91609 21.8647 11.173 22.1594 11.162C22.2904 11.162 23.2726 10.7024 24.3422 10.1553L26.2849 9.15945L28.4022 10.2538L30.5196 11.3481L33.9903 9.7832C39.2072 7.43042 39.7529 7.16778 39.6656 7.09118C39.5564 6.97081 37.6792 5.96404 32.5933 3.28295C30.1376 1.99166 27.7583 0.711305 27.2999 0.459612C26.8415 0.196975 26.405 0 26.3286 0C26.2522 0 23.3163 1.48827 19.8238 3.31578ZM4.4895 11.2824L0.844197 13.1646V21.4377C0.844197 25.9901 0.887854 29.7107 0.953338 29.7107C1.00791 29.7107 2.79782 28.9338 4.93698 27.9817L8.81147 26.2527V17.531L10.6996 18.5596C12.1621 19.3585 13.6137 20.1464 15.0762 20.9452L17.5646 22.2913L18.6669 21.7879C19.3654 21.4705 20.053 21.1532 20.7406 20.8358C21.2754 20.5841 22.585 19.9932 23.6546 19.5226C24.7242 19.0521 25.7065 18.5706 25.8484 18.4612C26.0339 18.3189 23.7638 17.0604 17.4554 13.8103C12.6969 11.359 8.64776 9.36737 8.46222 9.37831C8.27668 9.38925 6.48678 10.2428 4.4895 11.2824ZM40.3095 11.8077C37.832 12.9348 35.802 13.8978 35.802 13.9526C35.802 14.0073 37.1553 14.8171 38.8034 15.7472C40.4623 16.6774 41.8047 17.4872 41.8047 17.5529C41.8047 17.6185 40.3422 18.3298 38.5523 19.1287C36.7624 19.9385 32.244 21.9849 28.5005 23.681L15.982 29.3606C12.8279 30.7832 9.9902 32.0745 9.67369 32.2167C3.24529 35.1386 1.4663 35.9484 1.22619 36.0906C0.98608 36.2329 0.931509 37.0427 0.887853 41.1245L0.833282 45.9942L4.08568 47.6576L7.33807 49.3209L11.8565 47.2746C14.334 46.1474 16.3749 45.1735 16.3749 45.0969C16.3749 45.0203 15.9165 44.7248 15.3599 44.4293C14.8033 44.1339 13.6464 43.4773 12.7842 42.9739C11.9329 42.4705 11.0816 42.0109 10.8961 41.9452C10.7105 41.8796 10.5577 41.7811 10.5577 41.7045C10.5577 41.6388 12.5441 40.6868 14.9779 39.6034C19.6928 37.4913 23.2945 35.8608 31.0325 32.348C34.4923 30.7832 37.9521 29.2074 41.4227 27.6425C44.4678 26.2636 48.0039 24.655 49.2809 24.0641L51.6056 22.9916L51.6601 18.0672L51.7147 13.1428L48.4187 11.4575C46.6069 10.5273 45.0462 9.76132 44.9698 9.76132C44.8825 9.76132 42.787 10.6915 40.3095 11.8077ZM50.7325 29.5794C50.2413 29.8202 49.2809 30.2688 48.5933 30.5753C47.9057 30.8817 46.596 31.4726 45.6901 31.8884L44.0421 32.6435L44.0094 36.9661C43.9875 39.3407 43.9002 41.2777 43.8129 41.2667C43.6165 41.2339 40.5278 39.6472 37.4173 37.9728C35.169 36.7691 35.0271 36.7144 34.5032 36.977C34.1976 37.1302 32.375 37.951 30.4541 38.7936C28.5332 39.6472 26.8961 40.3913 26.8197 40.4679C26.7433 40.5336 30.6069 42.6346 35.42 45.1406L44.1513 49.693L47.8839 47.756C49.9357 46.6946 51.682 45.7206 51.7584 45.6002C51.9439 45.3267 51.9221 29.1089 51.7475 29.1308C51.6711 29.1417 51.2127 29.3387 50.7325 29.5794ZM30.0612 48.6096C29.4173 48.8832 28.7624 49.1677 28.1185 49.4522C26.1649 50.2949 26.5469 50.3277 24.2222 49.1677C22.6724 48.3908 22.0066 48.1609 21.7119 48.2704C21.4936 48.3579 19.6273 49.2006 17.5537 50.1417C15.4909 51.0828 13.7228 51.8597 13.6355 51.8597C12.7624 51.8597 14.2139 52.7243 19.7801 55.5367L26.3067 58.8415L29.0571 57.4845C30.5632 56.7404 33.6192 55.2412 35.8238 54.1578C38.0394 53.0744 39.8184 52.1662 39.7856 52.1224C39.7529 52.0896 37.8975 51.1375 35.6601 49.9994L31.6001 47.9421L30.0612 48.6096Z" fill="black"/>
</svg>
